# AST/ASF file generated using VICON BodyLanguage
# -----------------------------------------------
:version 1.10
:name VICON
:units
  mass 1.0
  length 0.45
  angle deg
:documentation
   .ast/.asf automatically generated from VICON data using
   VICON BodyBuilder and BodyLanguage model FoxedUp or BRILLIANT.MOD
:root
   order TX TY TZ RX RY RZ
   axis XYZ
   position 0 0 0  
   orientation 0 0 0 
:bonedata
  begin
     id 1 
     name lhipjoint
     direction 0.677091 -0.635792 0.370561 
     length 2.74323 
     axis 0 0 0  XYZ
  end
  begin
     id 2 
     name lfemur
     direction 0.34202 -0.939693 0  
     length 7.44995  
     axis 0 0 20  XYZ
    dof rx ry rz
    limits (-160.0 20.0)
           (-70.0 70.0)
           (-60.0 70.0)
  end
  begin
     id 3 
     name ltibia
     direction 0.34202 -0.939693 0   
     length 7.34467   
     axis 0 0 20   XYZ
    dof rx
    limits (-10.0 170.0)
  end
  begin
     id 4 
     name lfoot
     direction 0.101953 -0.280114 0.954537   
     length 1.72105   
     axis -90 7.62852e-016 20   XYZ
    dof rx rz
    limits (-45.0 90.0)
           (-70.0 20.0)
  end
  begin
     id 5 
     name ltoes
     direction 1.53537e-011 -4.21915e-011 1   
     length 0.865872   
     axis -90 7.62852e-016 20   XYZ
    dof rx
    limits (-90.0 20.0)
  end
  begin
     id 6 
     name rhipjoint
     direction -0.695735 -0.620586 0.361699   
     length 2.81045  
     axis 0 0 0  XYZ 
  end
  begin
     id 7 
     name rfemur
     direction -0.34202 -0.939693 0   
     length 7.29387   
     axis 0 0 -20   XYZ
    dof rx ry rz
    limits (-160.0 20.0)
           (-70.0 70.0)
           (-70.0 60.0)
  end
  begin
     id 8 
     name rtibia
     direction -0.34202 -0.939693 0   
     length 7.44935   
     axis 0 0 -20   XYZ
    dof rx
    limits (-10.0 170.0)
 end
 begin
     id 9 
     name rfoot
     direction -0.104163 -0.286184 0.952496   
     length 1.77731  
     axis -90 -7.62852e-016 -20   XYZ
    dof rx rz
    limits (-45.0 90.0)
           (-20.0 70.0)
  end
  begin
     id 10 
     name rtoes
     direction -1.5355e-011 -4.21888e-011 1   
     length 0.892424   
     axis -90 -7.62852e-016 -20   XYZ
    dof rx
    limits (-90.0 20.0)
  end
  begin
     id 11 
     name lowerback
     direction 0.0100202 0.997226 -0.0737589   
     length 2.16892   
     axis 0 0 0   XYZ
    dof rx ry rz
    limits (-20.0 45.0)
           (-30.0 30.0)
           (-30.0 30.0)
  end
  begin
     id 12 
     name upperback
     direction 0.00432398 0.999988 -0.00215019   
     length 2.17326   
     axis 0 0 0   XYZ
    dof rx ry rz
    limits (-20.0 45.0)
           (-30.0 30.0)
           (-30.0 30.0)
  end
  begin
     id 13 
     name thorax
     direction -0.00195047 0.999485 0.0320434   
     length 2.18139   
     axis 0 0 0   XYZ
    dof rx ry rz
    limits (-20.0 45.0)
           (-30.0 30.0)
           (-30.0 30.0)
  end
  begin
     id 14 
     name lowerneck
     direction 0.00782762 0.986241 0.165128   
     length 1.88415   
     axis 0 0 0   XYZ
    dof rx ry rz
    limits (-20.0 45.0)
           (-30.0 30.0)
           (-30.0 30.0)
  end
  begin
     id 15 
     name upperneck
     direction 0.00988667 0.981098 -0.193258   
     length 1.9242   
     axis 0 0 0   XYZ
    dof rx ry rz
    limits (-20.0 45.0)
           (-30.0 30.0)
           (-30.0 30.0)
  end
  begin
     id 16
     name head
     direction 0.00252199 0.996513 -0.0833958  
     length 1.93887  
     axis 0 0 0   XYZ
    dof rx ry rz
    limits (-20.0 45.0)
           (-30.0 30.0)
           (-30.0 30.0)
  end
  begin
     id 17 
     name lclavicle
     direction 0.929492 0.368193 -0.0218667  
     length 3.5955  
     axis 0 0 0   XYZ
    dof ry rz
    limits (-20.0 10.0)
           (0.0 20.0)
  end
  begin
     id 18 
     name lhumerus
     direction 1 -4.48972e-011 1.41911e-027   
     length 5.2795   
     axis 180 -30 -90   XYZ
    dof rx ry rz
    limits (-60.0 90.0)
           (-90.0 90.0)
           (-90.0 90.0)
  end
  begin
     id 19
     name lradius
     direction 1 -4.48963e-011 7.05772e-027   
     length 3.53504   
     axis 180 -30 -90   XYZ
    dof rx
    limits (-10.0 170.0)
  end
  begin
     id 20
     name lwrist
     direction 1 -4.48957e-011 9.54866e-027   
     length 1.76752   
     axis -7.69462e-015 90 90   XYZ
    dof ry
    limits (-180.0 0.0)
 end
  begin
     id 21 
     name lhand
     direction 1 -4.48979e-011 1.90973e-026   
     length 0.667948   
     axis -1.21857e-014 90 90   XYZ
    dof rx rz
    limits (-90.0 90.0)
           (-45.0 45.0)
  end
  begin
     id 22 
     name lfingers
     direction 1 -4.48987e-011 3.81946e-026   
     length 0.538517   
     axis -2.43714e-014 90 90   XYZ
    dof rx
    limits (0.0 90.0)
  end
  begin
     id 23
     name lthumb
     direction 0.707107 -6.34962e-011 0.707107   
     length 0.773206   
     axis -90 45 2.85299e-015   XYZ
    dof rx rz
    limits (-45.0 45.0)
           (-45.0 45.0)
  end
  begin
     id 24 
     name rclavicle
     direction -0.898763 0.414256 -0.143584   
     length 3.5176  
     axis 0 0 0   XYZ 
    dof ry rz
    limits (-10.0 20.0)
           (-20.0 0.0)
  end
  begin
     id 25 
     name rhumerus
     direction -1 -4.48971e-011 1.129e-027  
     length 5.25035   
     axis 180 30 90   XYZ
    dof rx ry rz
    limits (-90.0 60.0)
           (-90.0 90.0)
           (-90.0 90.0)
  end
  begin
     id 26 
     name rradius
     direction -1 -4.48955e-011 6.34664e-027   
     length 3.58884   
     axis 180 30 90   XYZ
    dof rx
    limits (-10.0 170.0)
  end
  begin
     id 27 
     name rwrist
     direction -1 -4.48966e-011 9.54866e-027   
     length 1.79442   
     axis -7.69462e-015 -90 -90   XYZ
    dof ry
    limits (-180.0 0.0)
  end
  begin
     id 28
     name rhand
     direction -1 -4.48973e-011 1.90973e-026   
     length 0.779235   
     axis -1.21857e-014 -90 -90   XYZ
    dof rx rz
    limits (-90.0 90.0)
           (-45.0 45.0)
  end
  begin
     id 29
     name rfingers
     direction -1 -4.48984e-011 3.81946e-026   
     length 0.62824   
     axis -2.43714e-014 -90 -90   XYZ
    dof rx
    limits (0.0 90.0)
  end
  begin
     id 30
     name rthumb
     direction -0.707107 -6.34968e-011 0.707107   
     length 0.90203   
     axis -90 -45 -2.85299e-015   XYZ
    dof rx rz
    limits (-45.0 45.0)
           (-45.0 45.0)
  end
:hierarchy
  begin
    root lhipjoint rhipjoint lowerback
    lhipjoint lfemur
    lfemur ltibia
    ltibia lfoot
    lfoot ltoes
    rhipjoint rfemur
    rfemur rtibia
    rtibia rfoot
    rfoot rtoes
    lowerback upperback
    upperback thorax
    thorax lowerneck lclavicle rclavicle
    lowerneck upperneck
    upperneck head
    lclavicle lhumerus
    lhumerus lradius
    lradius lwrist
    lwrist lhand lthumb
    lhand lfingers
    rclavicle rhumerus
    rhumerus rradius
    rradius rwrist
    rwrist rhand rthumb
    rhand rfingers
  end

#!OML:ASF I:\Random Stuff\random\construction\7_22_03\Session 2\subj1.ASF
:FULLY-SPECIFIED
:DEGREES
197
root -2.6985 17.6851 0.501861 -52.468 87.7824 -56.0985
lowerback -2.75494 -0.6125 0.590597
upperback -4.37752 -0.704239 1.18033
thorax -2.94567 -0.310528 0.879252
lowerneck -23.2003 -5.22964 -2.77567
upperneck 31.9841 -6.99603 2.23871
head 15.2819 -2.77461 0.0798544
rclavicle -1.12438e-014 5.96354e-015
rhumerus 31.5323 11.6874 -68.2723
rradius 101.131
rwrist -29.6103
rhand -34.0349 3.89104
rfingers 7.12502
rthumb -7.21329 -25.966
lclavicle -1.12438e-014 5.96354e-015
lhumerus -34.8253 1.84674 87.7807
lradius 25.9134
lwrist 28.0232
lhand -20.7316 57.747
lfingers 7.12502
lthumb 5.63348 87.6521
rfemur -4.01022 25.9517 19.8346
rtibia 8.92117
rfoot -3.87662 -34.5661
rtoes -13.658
lfemur -8.10133 -26.3746 -14.4813
ltibia 19.1038
lfoot -15.34 28.3128
ltoes -28.3836
198
root -2.69714 17.6861 0.503929 -53.3861 87.828 -57.0103
lowerback -2.78787 -0.598518 0.590196
upperback -4.35317 -0.686847 1.17958
thorax -2.90212 -0.302081 0.878173
lowerneck -23.2236 -5.22607 -2.85877
upperneck 32.015 -6.99918 2.35809
head 15.3122 -2.76624 0.142482
rclavicle 1.82633e-015 7.95139e-016
rhumerus 31.3645 11.8825 -68.1844
rradius 100.733
rwrist -30.1551
rhand -33.9677 3.26835
rfingers 7.12502
rthumb -7.14835 -26.5909
lclavicle 1.82633e-015 7.95139e-016
lhumerus -34.7217 1.84743 87.8004
lradius 25.8096
lwrist 28.0607
lhand -20.8653 57.9978
lfingers 7.12502
lthumb 5.50436 87.9064
rfemur -4.00875 25.8972 19.8267
rtibia 8.96042
rfoot -4.05782 -34.5713
rtoes -13.349
lfemur -8.09361 -26.4047 -14.4937
ltibia 19.0674
lfoot -15.2109 28.3299
ltoes -28.6315
199
root -2.69524 17.6876 0.504936 -54.3272 87.894 -57.9603
lowerback -2.86748 -0.580047 0.573782
upperback -4.30508 -0.664968 1.17068
thorax -2.80772 -0.291319 0.877051
lowerneck -23.1522 -5.21548 -2.76573
upperneck 31.8472 -6.98922 2.27291
head 15.2085 -2.77022 0.0955609
rclavicle -2.70844e-015 6.06293e-015
rhumerus 31.1157 12.1012 -68.0761
rradius 100.322
rwrist -30.6461
rhand -34.1124 2.42933
rfingers 7.12502
rthumb -7.28802 -27.4252
lclavicle -2.70844e-015 6.06293e-015
lhumerus -34.5985 1.89332 87.7942
lradius 25.7217
lwrist 27.9865
lhand -20.8727 58.0867
lfingers 7.12502
lthumb 5.49726 87.9954
rfemur -3.94782 25.8305 19.7936
rtibia 8.85534
rfoot -4.03539 -34.5591
rtoes -13.2349
lfemur -8.14321 -26.443 -14.5199
ltibia 19.0957
lfoot -15.1011 28.3584
ltoes -29.0538
200
root -2.69136 17.688 0.511103 -56.3803 87.8598 -59.9856
lowerback -2.91433 -0.542985 0.603017
upperback -4.25374 -0.617295 1.20416
thorax -2.72878 -0.268224 0.894433
lowerneck -23.0746 -5.22186 -2.75584
upperneck 31.7004 -7.01561 2.31267
head 15.1256 -2.77972 0.107645
rclavicle -5.2181e-016 -8.05078e-015
rhumerus 30.7733 12.2806 -67.9681
rradius 99.9665
rwrist -31.4464
rhand -34.0581 1.49776
rfingers 7.12502
rthumb -7.23561 -28.3585
lclavicle -5.2181e-016 -8.05078e-015
lhumerus -34.5391 1.95634 87.8037
lradius 25.71
lwrist 27.8574
lhand -20.8322 57.8885
lfingers 7.12502
lthumb 5.53633 87.7962
rfemur -3.80093 25.7913 19.9129
rtibia 8.66602
rfoot -3.94846 -34.5432
rtoes -13.122
lfemur -8.15092 -26.451 -14.4342
ltibia 19.1635
lfoot -15.1155 28.3149
ltoes -29.1884
201
root -2.68623 17.6859 0.52248 -59.617 87.732 -63.1603
lowerback -2.89485 -0.491925 0.69094
upperback -4.22655 -0.548997 1.26567
thorax -2.71273 -0.235669 0.908709
lowerneck -23.0777 -5.26402 -2.84882
upperneck 31.7182 -7.08677 2.44315
head 15.1485 -2.79994 0.163227
rclavicle 1.86361e-016 -2.5842e-015
rhumerus 30.366 12.3817 -67.8871
rradius 99.5981
rwrist -32.5811
rhand -33.6248 0.906839
rfingers 7.12502
rthumb -6.81736 -28.9634
lclavicle 1.86361e-016 -2.5842e-015
lhumerus -34.5785 1.84128 87.8805
lradius 25.7893
lwrist 27.9256
lhand -20.9443 57.6334
lfingers 7.12502
lthumb 5.42811 87.5439
rfemur -3.62882 25.7606 20.1815
rtibia 8.51316
rfoot -3.81252 -34.5216
rtoes -13.2543
lfemur -8.10778 -26.4469 -14.2339
ltibia 19.2141
lfoot -15.2004 28.253
ltoes -29.0896
202
root -2.68345 17.6844 0.529292 -62.331 87.6946 -65.8658
lowerback -2.90889 -0.486408 0.718481
upperback -4.21448 -0.541551 1.29505
thorax -2.69249 -0.232193 0.923301
lowerneck -23.1294 -5.26398 -2.82766
upperneck 31.7616 -7.09223 2.43519
head 15.1789 -2.79848 0.153929
rclavicle -1.29955e-014 9.74045e-015
rhumerus 29.9616 12.5299 -67.8903
rradius 99.1855
rwrist -33.8155
rhand -32.8217 0.231272
rfingers 7.12502
rthumb -6.04207 -29.6626
lclavicle -1.29955e-014 9.74045e-015
lhumerus -34.5545 1.67137 87.9486
lradius 25.8382
lwrist 28.1549
lhand -21.1472 57.5641
lfingers 7.12502
lthumb 5.23219 87.4795
rfemur -3.56639 25.6873 20.3058
rtibia 8.45368
rfoot -3.79497 -34.5052
rtoes -13.1876
lfemur -8.12199 -26.4914 -14.1179
ltibia 19.2235
lfoot -15.2191 28.2465
ltoes -29.0469
203
root -2.6838 17.6855 0.527818 -63.8564 87.8194 -67.4487
lowerback -2.96809 -0.50159 0.668522
upperback -4.20734 -0.563149 1.26045
thorax -2.65141 -0.242206 0.915037
lowerneck -23.1328 -5.24188 -2.8619
upperneck 31.7255 -7.08166 2.53807
head 15.1699 -2.78355 0.204649
rclavicle -5.91384e-015 -2.88238e-015
rhumerus 29.5313 12.6926 -67.9176
rradius 98.8492
rwrist -34.9282
rhand -31.8074 -0.856694
rfingers 7.12502
rthumb -5.06272 -30.7762
lclavicle -5.91384e-015 -2.88238e-015
lhumerus -34.4808 1.60657 87.9648
lradius 25.8672
lwrist 28.2668
lhand -21.1913 57.5887
lfingers 7.12502
lthumb 5.18967 87.5052
rfemur -3.64668 25.5754 20.1802
rtibia 8.51576
rfoot -3.85989 -34.5019
rtoes -13.0984
lfemur -8.18854 -26.5905 -14.1835
ltibia 19.1826
lfoot -15.1926 28.2297
ltoes -28.9048
204
root -2.68548 17.6885 0.522211 -65.1391 88.0387 -68.8119
lowerback -3.00959 -0.498555 0.610107
upperback -4.20635 -0.561399 1.16857
thorax -2.62729 -0.241411 0.852982
lowerneck -23.109 -5.22997 -2.87139
upperneck 31.6311 -7.09305 2.63359
head 15.127 -2.77823 0.24447
rclavicle -7.74018e-015 8.34896e-015
rhumerus 28.9702 12.7939 -67.9282
rradius 98.6414
rwrist -35.735
rhand -30.8437 -1.31735
rfingers 7.12502
rthumb -4.1322 -31.257
lclavicle -7.74018e-015 8.34896e-015
lhumerus -34.4859 1.63961 87.9266
lradius 25.9593
lwrist 28.148
lhand -21.0033 57.632
lfingers 7.12502
lthumb 5.37116 87.5439
rfemur -3.77452 25.4346 19.9309
rtibia 8.63413
rfoot -3.88236 -34.498
rtoes -13.387
lfemur -8.28207 -26.7198 -14.3515
ltibia 19.1233
lfoot -15.1247 28.2191
ltoes -28.8175
205
root -2.68516 17.6905 0.520081 -67.1872 88.1946 -70.9154
lowerback -3.04562 -0.480743 0.575145
upperback -4.1831 -0.540568 1.09118
thorax -2.58351 -0.231743 0.79274
lowerneck -23.2083 -5.22009 -2.76978
upperneck 31.6172 -7.11729 2.62773
head 15.1383 -2.77595 0.217733
rclavicle 2.90723e-015 -9.44227e-015
rhumerus 28.3316 12.8818 -67.9361
rradius 98.5156
rwrist -36.2477
rhand -29.981 -1.12526
rfingers 7.12502
rthumb -3.29908 -31.0795
lclavicle 2.90723e-015 -9.44227e-015
lhumerus -34.4499 1.70841 87.8736
lradius 25.9986
lwrist 27.9939
lhand -20.8296 57.7232
lfingers 7.12502
lthumb 5.53885 87.6308
rfemur -3.82954 25.3076 19.774
rtibia 8.67211
rfoot -3.949 -34.4935
rtoes -13.4656
lfemur -8.36571 -26.8278 -14.4533
ltibia 19.1162
lfoot -15.0751 28.2135
ltoes -28.8548
206
root -2.68091 17.6885 0.525073 -70.1166 88.1291 -73.8156
lowerback -3.06828 -0.458015 0.640924
upperback -4.12697 -0.512694 1.12122
thorax -2.51342 -0.219693 0.786444
lowerneck -23.2176 -5.19524 -2.80721
upperneck 31.5444 -7.10801 2.75142
head 15.115 -2.75998 0.277152
rclavicle 1.87603e-015 -3.18055e-015
rhumerus 27.6979 13.0987 -67.9156
rradius 98.4268
rwrist -36.6122
rhand -29.2617 -1.22337
rfingers 7.12502
rthumb -2.60446 -31.1872
lclavicle 1.87603e-015 -3.18055e-015
lhumerus -34.3731 1.84879 87.8503
lradius 25.9507
lwrist 27.8993
lhand -20.8152 57.7369
lfingers 7.12502
lthumb 5.55278 87.6442
rfemur -3.711 25.2481 19.9191
rtibia 8.55363
rfoot -3.98165 -34.4904
rtoes -13.2651
lfemur -8.36831 -26.8642 -14.3476
ltibia 19.194
lfoot -15.1544 28.1815
ltoes -28.8994
207
root -2.6747 17.6837 0.532313 -72.9372 87.9208 -76.5499
lowerback -3.03498 -0.491961 0.790118
upperback -4.08538 -0.558466 1.22181
thorax -2.4894 -0.245275 0.805849
lowerneck -23.1948 -5.10116 -2.76229
upperneck 31.5194 -6.98946 2.76256
head 15.0927 -2.7038 0.298668
rclavicle 2.60905e-016 -2.68359e-015
rhumerus 27.0403 13.6146 -67.9751
rradius 98.3433
rwrist -36.9377
rhand -28.8684 -1.42892
rfingers 7.12502
rthumb -2.22466 -31.3971
lclavicle 2.60905e-016 -2.68359e-015
lhumerus -34.4082 2.0363 87.7796
lradius 25.9604
lwrist 27.9334
lhand -20.8064 57.7021
lfingers 7.12502
lthumb 5.56123 87.6091
rfemur -3.41643 25.2303 20.2586
rtibia 8.22799
rfoot -3.75684 -34.4755
rtoes -13.3711
lfemur -8.33645 -26.9366 -14.1224
ltibia 19.3632
lfoot -15.3127 28.2347
ltoes -28.9665
